<?xml version="1.0" encoding="UTF-8"?>
<svg width="529px" height="551px" viewBox="0 0 529 551" version="1.1" xmlns="http://www.w3.org/2000/svg" xmlns:xlink="http://www.w3.org/1999/xlink">
    <title>Shape</title>
    <g id="Page-1" stroke="none" stroke-width="1" fill="none" fill-rule="evenodd">
        <g id="Frame" transform="translate(-247, -237)" fill="#7CCF00" fill-rule="nonzero">
            <path d="M674.029623,785.318138 C648.526607,784.146741 626.175649,782.704621 624.284414,782.256887 C621.038576,781.356213 620.950005,781.08549 615.995282,768.48126 C609.415035,751.732888 597.338224,727.237677 590.221346,716.518094 C570.214894,686.171106 549.937521,667.621386 515.421182,648.165785 C505.058465,642.220295 504.068563,641.861067 502.354468,643.120969 C469.281302,667.256951 431.701475,684.276046 388.083242,694.901917 C367.628729,699.853022 352.66557,702.284321 323.197734,705.345571 C318.243011,705.793305 317.972091,705.975523 316.169426,709.578219 C315.085743,711.65029 312.204606,716.059948 309.771529,719.391921 C297.965639,735.510343 281.111245,745.959203 261.646635,749.379682 C252.904232,750.910307 249.121762,750.551078 247.767159,748.031274 C246.954397,746.589154 255.87915,719.21491 278.136327,654.553803 C281.918797,643.657209 280.569404,644.28716 301.925249,643.474991 C335.717397,642.215089 356.44804,637.893936 376.631633,627.804304 C389.786917,621.228863 402.405569,610.243764 410.064289,598.535001 C415.743204,589.981201 434.306482,550.898195 434.306482,547.743232 C434.306482,547.201787 431.691055,545.223428 428.450427,543.328368 C414.482381,535.222301 397.450846,520.363783 390.688249,510.55008 C383.659941,500.194932 382.487688,495.873779 382.487688,479.661646 C382.487688,463.001779 384.290352,453.005859 391.04774,432.743296 C402.040868,399.512069 417.004027,377.541869 437.2814,364.932433 C450.077193,356.920078 470.536916,349.714686 490.183877,346.289001 C503.16202,343.946207 523.345613,343.769196 533.89068,345.841267 C537.8555,346.653435 541.189909,347.283386 541.372259,347.283386 C541.460829,347.283386 540.924198,345.841267 540.200006,344.039919 C537.8555,338.458863 535.245283,323.506633 535.245283,315.942012 C535.245283,303.155565 539.210104,285.053578 548.041076,258.127069 C552.724879,243.716284 554.621324,239.21812 556.330208,238.135229 C558.221443,236.786821 570.209684,237.416772 587.600709,239.665854 C654.377452,248.401871 664.474458,249.932497 666.183342,251.910856 C668.256928,254.430661 668.168358,258.127069 665.37058,274.333995 C664.109757,281.898616 663.296995,288.474057 663.479345,289.104008 C663.750266,289.733959 666.902324,291.35309 670.507654,292.706704 C682.495895,297.29858 698.897017,305.675369 701.778155,308.554403 C704.122661,310.897196 704.664502,312.068593 704.664502,315.400567 C704.664502,322.694464 699.345078,325.667209 686.460715,325.667209 C680.151389,325.667209 661.134839,323.595139 656.362467,322.423742 C654.559802,321.976008 654.288882,322.423742 653.298979,328.546243 C651.496314,339.531342 649.78222,345.565338 646.08832,353.129958 C640.232265,365.197949 631.667003,373.933967 620.225813,379.426517 C616.620484,381.139359 613.645566,383.029213 613.645566,383.659164 C613.645566,385.189789 625.810948,406.170809 632.031704,415.266055 C639.419503,426.162649 652.668567,439.21982 662.583223,445.342321 C677.093111,454.255349 692.863822,458.310986 714.131097,458.310986 C726.92689,458.399491 732.152533,457.951757 746.125789,455.338241 C765.68418,451.82405 777.0368,462.991367 775.593626,484.243109 C774.692293,497.571003 769.914711,506.754754 761.985071,510.35745 C759.010153,511.705858 756.035235,512.070293 746.756201,512.070293 C740.446875,512.070293 731.344981,512.700244 726.478829,513.330195 C682.683455,519.905636 644.019945,514.590098 617.073755,498.471677 C613.020365,496.040377 609.321255,494.150524 608.961764,494.239029 C608.513703,494.421247 606.169197,499.643074 603.736121,505.765575 C595.71791,526.028137 580.666181,553.761609 569.761623,568.172394 C567.599467,570.962922 565.885373,573.664944 565.885373,574.117884 C565.885373,574.565618 570.209684,578.532749 575.617678,582.942407 C609.863097,611.040313 635.006622,645.260721 654.023171,689.924782 C658.889324,701.26911 665.016299,718.829651 667.631726,728.825571 C668.621629,732.24605 668.98112,732.69899 672.049818,733.146724 C686.471135,735.395806 702.601337,741.070573 711.43231,747.104568 C722.784929,754.757695 734.59082,769.798431 737.294817,779.882856 C738.378499,784.026998 738.378499,784.297721 736.304914,785.916852 C733.689487,787.988923 734.77317,788.077428 674.034833,785.2869 L674.029623,785.318138 Z M513.076676,572.254061 C514.967911,570.452713 532.541286,539.652785 555.611226,497.60224 C562.462394,485.263526 563.092805,481.213096 558.945635,477.068954 C556.153067,474.366932 531.457604,459.867642 529.654939,459.867642 C529.024527,459.867642 526.4091,463.829566 523.798884,468.692165 C518.47946,478.776591 516.411085,481.030879 513.436167,480.21871 C512.263914,479.947987 508.116743,477.605194 504.151923,474.996883 C494.867679,468.874382 494.779109,468.244431 501.359356,455.994223 C504.151923,450.860901 506.407859,446.18052 506.407859,445.639074 C506.407859,444.556183 481.623824,429.609159 476.398181,427.6308 C471.891519,425.829452 466.754446,427.271571 463.779528,431.322002 C461.435022,434.471758 446.388503,460.768316 443.590726,466.531589 L441.970412,470.045779 L445.575741,472.836307 C452.69262,478.328857 457.923473,484.451358 460.71604,490.308342 C463.237687,495.623881 463.602388,497.243012 463.602388,503.995464 C463.513818,510.388688 463.154327,512.549264 461.080741,517.052634 C458.194394,523.268847 451.978848,529.479854 445.669521,532.62961 C443.418796,533.801007 441.704701,535.060909 441.975622,535.420137 C442.157972,535.867871 446.299933,538.481388 451.166086,541.365627 C456.032238,544.249867 468.109049,551.720776 478.023705,557.936988 C506.683989,575.856757 508.304304,576.486709 513.081886,572.254061 L513.076676,572.254061 Z" id="Shape"></path>
        </g>
    </g>
</svg>